<svg xmlns="http://www.w3.org/2000/svg" viewBox="0 0 512 512" fill="none">
  <rect width="512" height="512" rx="96" fill="#080C14"/>
  <g filter="url(#glow)">
  <circle cx="255.97" cy="237.96" r="4.21" fill="#4F46E5" opacity="0.63"/>
  <circle cx="262.44" cy="249.04" r="3.54" fill="#22D3EE" opacity="0.89"/>
  <circle cx="281.05" cy="265.05" r="3.68" fill="#4F46E5" opacity="0.93"/>
  <circle cx="291.36" cy="274.01" r="4.55" fill="#4F46E5" opacity="0.72"/>
  <circle cx="237.53" cy="234.63" r="3.30" fill="#E0F2FE" opacity="0.98"/>
  <circle cx="223.17" cy="277.90" r="4.67" fill="#4F46E5" opacity="0.62"/>
  <circle cx="228.29" cy="273.18" r="4.67" fill="#E0F2FE" opacity="0.90"/>
  <circle cx="236.95" cy="289.68" r="4.23" fill="#4F46E5" opacity="0.66"/>
  <circle cx="274.11" cy="264.09" r="3.91" fill="#4F46E5" opacity="0.76"/>
  <circle cx="267.08" cy="223.05" r="4.80" fill="#22D3EE" opacity="0.76"/>
  <circle cx="242.83" cy="285.50" r="4.13" fill="#4F46E5" opacity="0.62"/>
  <circle cx="275.60" cy="229.25" r="3.75" fill="#7C3AED" opacity="0.84"/>
  <circle cx="227.39" cy="244.33" r="4.41" fill="#4F46E5" opacity="0.94"/>
  <circle cx="292.02" cy="265.97" r="4.20" fill="#7C3AED" opacity="0.55"/>
  <circle cx="256.24" cy="243.20" r="4.45" fill="#E0F2FE" opacity="0.78"/>
  <circle cx="261.98" cy="217.55" r="4.95" fill="#4F46E5" opacity="0.96"/>
  <circle cx="259.42" cy="259.74" r="3.45" fill="#22D3EE" opacity="0.99"/>
  <circle cx="230.11" cy="286.04" r="4.76" fill="#4F46E5" opacity="0.93"/>
  <circle cx="236.99" cy="270.96" r="4.68" fill="#7C3AED" opacity="0.96"/>
  <circle cx="283.40" cy="237.43" r="3.53" fill="#4F46E5" opacity="0.92"/>
  <circle cx="252.82" cy="289.78" r="3.27" fill="#7C3AED" opacity="0.78"/>
  <circle cx="272.15" cy="97.79" r="2.76" fill="#22D3EE" opacity="0.62"/>
  <circle cx="19.91" cy="294.46" r="3.25" fill="#E0F2FE" opacity="0.85"/>
  <circle cx="110.92" cy="446.18" r="2.99" fill="#4F46E5" opacity="0.63"/>
  <circle cx="488.86" cy="310.69" r="3.05" fill="#7C3AED" opacity="0.94"/>
  <circle cx="53.24" cy="129.10" r="1.79" fill="#4F46E5" opacity="0.83"/>
  <circle cx="247.98" cy="422.07" r="3.68" fill="#4F46E5" opacity="0.58"/>
  <circle cx="209.91" cy="320.01" r="3.20" fill="#22D3EE" opacity="0.79"/>
  <circle cx="148.34" cy="469.60" r="1.85" fill="#7C3AED" opacity="0.92"/>
  <circle cx="179.37" cy="482.59" r="3.47" fill="#4F46E5" opacity="0.60"/>
  <circle cx="488.78" cy="311.05" r="2.90" fill="#7C3AED" opacity="0.80"/>
  <circle cx="157.00" cy="473.75" r="2.34" fill="#22D3EE" opacity="0.92"/>
  <circle cx="317.21" cy="374.30" r="3.40" fill="#4F46E5" opacity="0.63"/>
  <circle cx="368.02" cy="117.64" r="2.00" fill="#4F46E5" opacity="0.64"/>
  <circle cx="92.80" cy="430.88" r="3.46" fill="#4F46E5" opacity="0.82"/>
  <circle cx="402.90" cy="67.22" r="2.32" fill="#7C3AED" opacity="0.75"/>
  <circle cx="251.94" cy="190.29" r="3.48" fill="#22D3EE" opacity="0.74"/>
  <circle cx="423.43" cy="152.63" r="3.30" fill="#E0F2FE" opacity="0.55"/>
  <circle cx="383.98" cy="53.91" r="4.15" fill="#7C3AED" opacity="0.81"/>
  <circle cx="21.86" cy="207.04" r="2.29" fill="#4F46E5" opacity="0.86"/>
  <circle cx="247.47" cy="16.95" r="2.35" fill="#22D3EE" opacity="0.75"/>
  <circle cx="495.11" cy="249.60" r="2.55" fill="#4F46E5" opacity="0.88"/>
  <circle cx="339.89" cy="220.41" r="2.09" fill="#4F46E5" opacity="0.88"/>
  <circle cx="242.07" cy="17.21" r="4.42" fill="#4F46E5" opacity="0.56"/>
  <circle cx="377.42" cy="462.09" r="2.75" fill="#E0F2FE" opacity="0.68"/>
  <circle cx="281.22" cy="493.87" r="1.77" fill="#4F46E5" opacity="0.95"/>
  <circle cx="312.15" cy="374.70" r="3.91" fill="#4F46E5" opacity="0.56"/>
  <circle cx="48.38" cy="137.21" r="2.07" fill="#4F46E5" opacity="0.94"/>
  <circle cx="87.18" cy="425.46" r="4.38" fill="#22D3EE" opacity="0.97"/>
  <circle cx="375.71" cy="115.79" r="2.64" fill="#7C3AED" opacity="0.88"/>
  <circle cx="485.90" cy="189.97" r="2.28" fill="#E0F2FE" opacity="0.94"/>
  <circle cx="17.68" cy="235.48" r="3.20" fill="#E0F2FE" opacity="0.88"/>
  <circle cx="93.29" cy="431.34" r="4.28" fill="#7C3AED" opacity="0.74"/>
  <circle cx="293.72" cy="291.57" r="3.77" fill="#7C3AED" opacity="0.63"/>
  <circle cx="278.38" cy="185.96" r="3.59" fill="#E0F2FE" opacity="0.92"/>
  <circle cx="231.44" cy="18.06" r="3.00" fill="#4F46E5" opacity="0.61"/>
  <circle cx="492.86" cy="222.62" r="3.39" fill="#4F46E5" opacity="0.94"/>
  <circle cx="202.66" cy="22.82" r="4.41" fill="#4F46E5" opacity="0.87"/>
  <circle cx="240.54" cy="411.59" r="1.96" fill="#7C3AED" opacity="0.98"/>
  <circle cx="369.79" cy="45.60" r="3.77" fill="#4F46E5" opacity="0.58"/>
  <circle cx="211.84" cy="20.91" r="2.35" fill="#4F46E5" opacity="0.63"/>
  <circle cx="296.98" cy="20.34" r="3.57" fill="#E0F2FE" opacity="0.71"/>
  <circle cx="273.78" cy="190.77" r="2.42" fill="#7C3AED" opacity="0.60"/>
  <circle cx="350.41" cy="100.33" r="1.76" fill="#7C3AED" opacity="0.62"/>
  <circle cx="92.71" cy="430.79" r="1.89" fill="#4F46E5" opacity="0.92"/>
  <circle cx="79.42" cy="417.36" r="3.49" fill="#7C3AED" opacity="0.85"/>
  <circle cx="156.06" cy="38.68" r="2.57" fill="#22D3EE" opacity="0.97"/>
  <circle cx="62.72" cy="115.07" r="3.30" fill="#4F46E5" opacity="0.56"/>
  <circle cx="452.96" cy="120.27" r="1.66" fill="#E0F2FE" opacity="0.77"/>
  <circle cx="317.22" cy="487.23" r="4.28" fill="#7C3AED" opacity="0.91"/>
  <circle cx="149.80" cy="41.67" r="4.32" fill="#4F46E5" opacity="0.60"/>
  <circle cx="16.84" cy="251.80" r="3.52" fill="#4F46E5" opacity="1.00"/>
  <circle cx="227.25" cy="18.53" r="2.12" fill="#E0F2FE" opacity="0.67"/>
  <circle cx="493.29" cy="266.64" r="3.72" fill="#4F46E5" opacity="0.91"/>
  <circle cx="300.22" cy="194.37" r="3.63" fill="#4F46E5" opacity="0.77"/>
  <circle cx="408.44" cy="71.67" r="2.48" fill="#4F46E5" opacity="0.98"/>
  <circle cx="30.92" cy="336.98" r="2.66" fill="#4F46E5" opacity="0.88"/>
  <circle cx="330.75" cy="28.78" r="2.77" fill="#7C3AED" opacity="0.91"/>
  <circle cx="115.37" cy="389.56" r="2.08" fill="#22D3EE" opacity="0.91"/>
  <circle cx="170.79" cy="167.80" r="1.79" fill="#4F46E5" opacity="0.96"/>
  <circle cx="189.02" cy="26.37" r="4.35" fill="#7C3AED" opacity="0.56"/>
  <circle cx="101.59" cy="438.69" r="3.60" fill="#4F46E5" opacity="0.98"/>
  <circle cx="495.15" cy="261.11" r="2.50" fill="#7C3AED" opacity="0.71"/>
  <circle cx="336.57" cy="30.78" r="3.52" fill="#4F46E5" opacity="0.62"/>
  <circle cx="262.92" cy="191.05" r="3.78" fill="#7C3AED" opacity="0.84"/>
  <circle cx="457.96" cy="384.17" r="1.96" fill="#22D3EE" opacity="0.56"/>
  <circle cx="236.96" cy="17.56" r="2.78" fill="#4F46E5" opacity="0.62"/>
  <circle cx="128.15" cy="53.83" r="2.41" fill="#4F46E5" opacity="0.83"/>
  <circle cx="55.59" cy="125.42" r="2.83" fill="#22D3EE" opacity="0.89"/>
  <circle cx="256.78" cy="16.80" r="2.65" fill="#4F46E5" opacity="0.64"/>
  <circle cx="205.52" cy="427.40" r="2.16" fill="#7C3AED" opacity="0.63"/>
  <circle cx="296.28" cy="284.88" r="2.39" fill="#22D3EE" opacity="0.79"/>
  <circle cx="26.96" cy="317.88" r="3.09" fill="#7C3AED" opacity="0.94"/>
  <circle cx="226.48" cy="493.37" r="2.84" fill="#4F46E5" opacity="0.96"/>
  <circle cx="401.16" cy="446.12" r="4.20" fill="#22D3EE" opacity="0.61"/>
  <circle cx="347.43" cy="90.37" r="4.25" fill="#4F46E5" opacity="0.88"/>
  <circle cx="386.28" cy="456.61" r="3.48" fill="#7C3AED" opacity="0.90"/>
  <circle cx="495.05" cy="247.43" r="3.22" fill="#7C3AED" opacity="0.72"/>
  <circle cx="102.06" cy="439.08" r="3.20" fill="#7C3AED" opacity="0.72"/>
  <circle cx="148.06" cy="235.71" r="2.44" fill="#4F46E5" opacity="0.94"/>
  <circle cx="492.74" cy="221.80" r="1.92" fill="#4F46E5" opacity="0.58"/>
  <circle cx="131.84" cy="460.45" r="2.42" fill="#4F46E5" opacity="0.75"/>
  <circle cx="198.31" cy="228.02" r="1.25" fill="#4F46E5" opacity="0.86"/>
  <circle cx="297.07" cy="307.17" r="1.53" fill="#E0F2FE" opacity="0.73"/>
  <circle cx="214.14" cy="301.58" r="1.11" fill="#22D3EE" opacity="0.60"/>
  <circle cx="268.19" cy="189.80" r="1.62" fill="#4F46E5" opacity="0.69"/>
  <circle cx="224.83" cy="329.88" r="2.09" fill="#4F46E5" opacity="0.76"/>
  <circle cx="187.79" cy="219.50" r="1.91" fill="#4F46E5" opacity="0.88"/>
  <circle cx="250.31" cy="317.88" r="1.18" fill="#4F46E5" opacity="0.59"/>
  <circle cx="258.22" cy="179.32" r="1.50" fill="#E0F2FE" opacity="0.70"/>
  <circle cx="305.56" cy="218.58" r="1.26" fill="#4F46E5" opacity="0.65"/>
  <circle cx="279.43" cy="201.76" r="1.13" fill="#7C3AED" opacity="0.81"/>
  <circle cx="305.64" cy="206.06" r="1.17" fill="#7C3AED" opacity="0.61"/>
  <circle cx="178.93" cy="238.74" r="1.34" fill="#4F46E5" opacity="0.74"/>
  <circle cx="178.19" cy="267.93" r="1.55" fill="#7C3AED" opacity="0.64"/>
  <circle cx="317.96" cy="227.35" r="1.87" fill="#E0F2FE" opacity="0.74"/>
  <circle cx="292.26" cy="310.71" r="1.99" fill="#4F46E5" opacity="0.76"/>
  <circle cx="255.86" cy="339.72" r="1.95" fill="#4F46E5" opacity="0.93"/>
  <circle cx="323.57" cy="241.81" r="1.60" fill="#7C3AED" opacity="0.85"/>
  <circle cx="338.44" cy="242.65" r="1.54" fill="#4F46E5" opacity="0.96"/>
  </g>
  <defs>
    <filter id="glow" x="-20%" y="-20%" width="140%" height="140%">
      <feGaussianBlur stdDeviation="1.2" result="blur"/>
      <feMerge>
        <feMergeNode in="blur"/>
        <feMergeNode in="SourceGraphic"/>
      </feMerge>
    </filter>
  </defs>
</svg>
